<svg id="Component_218_69" data-name="Component 218 – 69" xmlns="http://www.w3.org/2000/svg" width="1366" height="96" viewBox="0 0 1366 96">
  <rect id="Rectangle_1107" data-name="Rectangle 1107" width="1366" height="96" fill="#fff"/>
  <g id="Component_222_2" data-name="Component 222 – 2" transform="translate(139 31)">
    <text id="allPort" transform="translate(0 29)" fill="#27187f" font-size="31" font-family="SegoeUI-Bold, Segoe UI" font-weight="700"><tspan x="0" y="0">all</tspan><tspan y="0" fill="#758bfd">Port</tspan></text>
  </g>
  <g id="Group_3364" data-name="Group 3364" transform="translate(-99 -34)">
    <rect id="Rectangle_1094" data-name="Rectangle 1094" width="227" height="37" rx="4" transform="translate(1099 63)" fill="#f2f5f8"/>
    <rect id="Rectangle_1152" data-name="Rectangle 1152" width="37" height="37" rx="4" transform="translate(1289 63)" fill="#8172d5"/>
    <g id="Group_3091" data-name="Group 3091" transform="translate(29.24 9.24)">
      <g id="Search" transform="translate(1272 67)">
        <path id="Path_2" data-name="Path 2" d="M1.47,5.145A3.639,3.639,0,0,1,5.145,1.47,3.639,3.639,0,0,1,8.82,5.145,3.639,3.639,0,0,1,5.145,8.82,3.639,3.639,0,0,1,1.47,5.145Zm9.041,6.395a.728.728,0,0,0,1.029-1.029L9.261,8.232A5.032,5.032,0,0,0,10.29,5.145,5.113,5.113,0,0,0,5.145,0,5.113,5.113,0,0,0,0,5.145,5.113,5.113,0,0,0,5.145,10.29,5.032,5.032,0,0,0,8.232,9.261Z" fill="#fff"/>
      </g>
    </g>
  </g>
  <g id="Group_3363" data-name="Group 3363" transform="translate(-34.144 -32.465)">
    <g id="Group_3088" data-name="Group 3088" transform="translate(618.709 72.465)">
      <text id="Who_We_Are" data-name="Who We Are" transform="translate(243.435 14)" fill="#8172d5" font-size="13" font-family="SegoeUI, Segoe UI"><tspan x="-36.188" y="0">Who We Are</tspan></text>
      <text id="Job_Tools" data-name="Job Tools" transform="translate(110.435 14)" fill="#8172d5" font-size="13" font-family="SegoeUI, Segoe UI"><tspan x="-26.451" y="0">Job Tools</tspan></text>
      <text id="Department_services" data-name="Department services" transform="translate(-46.565 14)" fill="#8172d5" font-size="13" font-family="SegoeUI, Segoe UI"><tspan x="-58.471" y="0">Department services</tspan></text>
      <text id="News" transform="translate(-191.565 14)" fill="#8172d5" font-size="13" font-family="SegoeUI, Segoe UI"><tspan x="-15.717" y="0">News</tspan></text>
    </g>
  </g>
</svg>
